<svg width="106" height="106" viewBox="0 0 106 106" fill="none" xmlns="http://www.w3.org/2000/svg">
<g filter="url(#filter0_d_3_3265)">
<rect x="20" y="10" width="66" height="66" rx="24" fill="url(#paint0_linear_3_3265)"/>
</g>
<path d="M70 36.8291V45.8392C69.9992 46.4907 69.7234 47.1153 69.2331 47.5759C68.7428 48.0366 68.078 48.2957 67.3846 48.2964H66.5128V51.5728C66.5127 51.7285 66.4654 51.881 66.3765 52.0123C66.2875 52.1437 66.1606 52.2485 66.0106 52.3145C65.8605 52.3806 65.6936 52.4051 65.5292 52.3853C65.3649 52.3654 65.2099 52.302 65.0826 52.2024L60.0944 48.2964H51.6923C50.9989 48.2957 50.3341 48.0366 49.8438 47.5759C49.3535 47.1153 49.0777 46.4907 49.0769 45.8392V45.0201H57.7949C58.9505 45.0188 60.0585 44.5869 60.8756 43.8191C61.6928 43.0514 62.1525 42.0104 62.1538 40.9246V34.3718H67.3846C68.078 34.3726 68.7428 34.6317 69.2331 35.0924C69.7234 35.553 69.9992 36.1776 70 36.8291ZM57.7949 43.3819H45.9908L41.0205 48.8289C40.9046 48.9557 40.7501 49.0463 40.5778 49.0882C40.4055 49.1302 40.2237 49.1216 40.0568 49.0637C39.8898 49.0057 39.7458 48.9011 39.6439 48.764C39.5421 48.6268 39.4874 48.4637 39.4872 48.2964V43.3819H38.6154C37.922 43.3812 37.2572 43.122 36.7669 42.6614C36.2766 42.2007 36.0008 41.5761 36 40.9246V29.4573C36.0008 28.8058 36.2766 28.1812 36.7669 27.7205C37.2572 27.2598 37.922 27.0007 38.6154 27H57.7949C58.4883 27.0007 59.1531 27.2598 59.6434 27.7205C60.1337 28.1812 60.4095 28.8058 60.4103 29.4573V40.9246C60.4095 41.5761 60.1337 42.2007 59.6434 42.6614C59.1531 43.122 58.4883 43.3812 57.7949 43.3819ZM55.1795 36.8291C55.1795 36.6119 55.0876 36.4036 54.9241 36.2499C54.7607 36.0963 54.5389 36.01 54.3077 36.01H42.1026C41.8713 36.01 41.6496 36.0963 41.4861 36.2499C41.3226 36.4036 41.2308 36.6119 41.2308 36.8291C41.2308 37.0464 41.3226 37.2547 41.4861 37.4083C41.6496 37.5619 41.8713 37.6482 42.1026 37.6482H54.3077C54.5389 37.6482 54.7607 37.5619 54.9241 37.4083C55.0876 37.2547 55.1795 37.0464 55.1795 36.8291ZM55.1795 32.7337C55.1795 32.5164 55.0876 32.3081 54.9241 32.1545C54.7607 32.0009 54.5389 31.9146 54.3077 31.9146H42.1026C41.8713 31.9146 41.6496 32.0009 41.4861 32.1545C41.3226 32.3081 41.2308 32.5164 41.2308 32.7337C41.2308 32.9509 41.3226 33.1592 41.4861 33.3128C41.6496 33.4665 41.8713 33.5528 42.1026 33.5528H54.3077C54.5389 33.5528 54.7607 33.4665 54.9241 33.3128C55.0876 33.1592 55.1795 32.9509 55.1795 32.7337Z" fill="white"/>
<defs>
<filter id="filter0_d_3_3265" x="0" y="0" width="106" height="106" filterUnits="userSpaceOnUse" color-interpolation-filters="sRGB">
<feFlood flood-opacity="0" result="BackgroundImageFix"/>
<feColorMatrix in="SourceAlpha" type="matrix" values="0 0 0 0 0 0 0 0 0 0 0 0 0 0 0 0 0 0 127 0" result="hardAlpha"/>
<feMorphology radius="2" operator="erode" in="SourceAlpha" result="effect1_dropShadow_3_3265"/>
<feOffset dy="10"/>
<feGaussianBlur stdDeviation="11"/>
<feColorMatrix type="matrix" values="0 0 0 0 0.97947 0 0 0 0 0.730307 0 0 0 0 0.328531 0 0 0 0.3 0"/>
<feBlend mode="normal" in2="BackgroundImageFix" result="effect1_dropShadow_3_3265"/>
<feBlend mode="normal" in="SourceGraphic" in2="effect1_dropShadow_3_3265" result="shape"/>
</filter>
<linearGradient id="paint0_linear_3_3265" x1="33.5" y1="10" x2="65" y2="76" gradientUnits="userSpaceOnUse">
<stop stop-color="#FFD085"/>
<stop offset="1" stop-color="#FFAF2E"/>
</linearGradient>
</defs>
</svg>
