<svg width="106" height="106" viewBox="0 0 106 106" fill="none" xmlns="http://www.w3.org/2000/svg">
<g filter="url(#filter0_d_3_3273)">
<rect x="20" y="12" width="66" height="66" rx="24" fill="url(#paint0_linear_3_3273)"/>
</g>
<path fill-rule="evenodd" clip-rule="evenodd" d="M41.9787 29C39.7813 29 38 30.6737 38 32.7382V57.2065C38 59.271 39.7813 60.9447 41.9787 60.9447H60.7872C62.9846 60.9447 64.766 59.271 64.766 57.2065V32.7382C64.766 30.6737 62.9846 29 60.7872 29H41.9787ZM44.8723 33.078C43.474 33.078 42.3404 34.1431 42.3404 35.4569C42.3404 36.7707 43.474 37.8358 44.8723 37.8358C46.2707 37.8358 47.4043 36.7707 47.4043 35.4569C47.4043 34.1431 46.2707 33.078 44.8723 33.078ZM42.3404 44.9723C42.3404 43.6585 43.474 42.5935 44.8723 42.5935C46.2707 42.5935 47.4043 43.6585 47.4043 44.9723C47.4043 46.2861 46.2707 47.3512 44.8723 47.3512C43.474 47.3512 42.3404 46.2861 42.3404 44.9723ZM44.8723 52.1089C43.474 52.1089 42.3404 53.174 42.3404 54.4878C42.3404 55.8016 43.474 56.8666 44.8723 56.8666C46.2707 56.8666 47.4043 55.8016 47.4043 54.4878C47.4043 53.174 46.2707 52.1089 44.8723 52.1089ZM52.1064 34.4374C51.5071 34.4374 51.0213 34.8938 51.0213 35.4569C51.0213 36.02 51.5071 36.4764 52.1064 36.4764H60.7872C61.3865 36.4764 61.8723 36.02 61.8723 35.4569C61.8723 34.8938 61.3865 34.4374 60.7872 34.4374H52.1064ZM51.0213 44.9723C51.0213 44.4093 51.5071 43.9528 52.1064 43.9528H60.7872C61.3865 43.9528 61.8723 44.4093 61.8723 44.9723C61.8723 45.5354 61.3865 45.9918 60.7872 45.9918H52.1064C51.5071 45.9918 51.0213 45.5354 51.0213 44.9723ZM52.1064 53.4683C51.5071 53.4683 51.0213 53.9247 51.0213 54.4878C51.0213 55.0508 51.5071 55.5073 52.1064 55.5073H60.7872C61.3865 55.5073 61.8723 55.0508 61.8723 54.4878C61.8723 53.9247 61.3865 53.4683 60.7872 53.4683H52.1064Z" fill="white"/>
<defs>
<filter id="filter0_d_3_3273" x="0" y="0" width="106" height="106" filterUnits="userSpaceOnUse" color-interpolation-filters="sRGB">
<feFlood flood-opacity="0" result="BackgroundImageFix"/>
<feColorMatrix in="SourceAlpha" type="matrix" values="0 0 0 0 0 0 0 0 0 0 0 0 0 0 0 0 0 0 127 0" result="hardAlpha"/>
<feMorphology radius="2" operator="erode" in="SourceAlpha" result="effect1_dropShadow_3_3273"/>
<feOffset dy="8"/>
<feGaussianBlur stdDeviation="11"/>
<feColorMatrix type="matrix" values="0 0 0 0 0.971137 0 0 0 0 0.341921 0 0 0 0 0.36709 0 0 0 0.3 0"/>
<feBlend mode="normal" in2="BackgroundImageFix" result="effect1_dropShadow_3_3273"/>
<feBlend mode="normal" in="SourceGraphic" in2="effect1_dropShadow_3_3273" result="shape"/>
</filter>
<linearGradient id="paint0_linear_3_3273" x1="33.5" y1="12" x2="65" y2="78" gradientUnits="userSpaceOnUse">
<stop stop-color="#FF858A"/>
<stop offset="1" stop-color="#F04148"/>
</linearGradient>
</defs>
</svg>
