<svg width="106" height="107" viewBox="0 0 106 107" fill="none" xmlns="http://www.w3.org/2000/svg">
<g filter="url(#filter0_d_3_3254)">
<rect x="20" y="10.4047" width="66" height="66" rx="24" fill="url(#paint0_linear_3_3254)"/>
</g>
<path fill-rule="evenodd" clip-rule="evenodd" d="M47.6349 43.4397C51.1525 43.4397 54.0042 40.7605 54.0042 37.4555C54.0042 34.1505 51.1525 31.4713 47.6349 31.4713C44.1173 31.4713 41.2656 34.1505 41.2656 37.4555C41.2656 40.7605 44.1173 43.4397 47.6349 43.4397Z" fill="white"/>
<path fill-rule="evenodd" clip-rule="evenodd" d="M53.1641 42.7699C51.7321 44.0528 49.7827 44.8421 47.635 44.8421C45.4873 44.8421 43.5378 44.0528 42.1058 42.7699C41.8592 42.7125 41.6126 42.6557 41.3731 42.627C41.1336 42.5983 40.9019 42.5983 40.6859 42.6297C40.4705 42.6604 40.2715 42.7232 40.0391 42.8013C39.8067 42.8788 39.5416 42.9722 39.2098 43.1592C38.8786 43.3462 38.4799 43.6267 38.099 44.0948C37.7173 44.5616 37.3527 45.2168 37.0208 45.9961C36.6889 46.7748 36.3905 47.679 36.2249 48.5518C36.0593 49.424 36.0259 50.2661 36.0095 50.9045C35.9925 51.5436 35.9925 51.9803 36.0593 52.4011C36.1254 52.8218 36.2576 53.2265 36.5568 53.6318C36.8552 54.0372 37.3193 54.4426 37.8666 54.7537C38.4138 55.0656 39.0442 55.284 39.9069 55.3928C40.769 55.5017 41.8635 55.5017 43.1903 55.5017H47.038H47.635H48.2319H52.0796C53.4064 55.5017 54.5009 55.5017 55.363 55.3928C56.2257 55.284 56.8561 55.0656 57.4034 54.7537C57.9506 54.4426 58.4147 54.0372 58.7132 53.6318C59.0124 53.2265 59.1445 52.8218 59.2106 52.4011C59.2774 51.9803 59.2774 51.5436 59.2604 50.9045C59.244 50.2661 59.2106 49.424 59.045 48.5518C58.8795 47.679 58.581 46.7748 58.2491 45.9961C57.9172 45.2168 57.5526 44.5616 57.171 44.0948C56.79 43.6267 56.3913 43.3462 56.0602 43.1592C55.7283 42.9722 55.4632 42.8788 55.2308 42.8013C54.9984 42.7232 54.7994 42.6604 54.5841 42.6297C54.368 42.5983 54.1363 42.5983 53.8968 42.627C53.6573 42.6557 53.4107 42.7125 53.1641 42.7699Z" fill="white"/>
<path fill-rule="evenodd" clip-rule="evenodd" d="M54.4239 40.4045C55.5558 41.3755 57.063 41.9685 58.7166 41.9685C62.2333 41.9685 65.0843 39.2892 65.0843 35.9842C65.0843 32.6793 62.2333 30 58.7166 30C56.4583 30 54.4736 31.1052 53.3438 32.7714C54.6186 33.8653 55.4187 35.4413 55.4187 37.1916C55.4187 38.3737 55.0535 39.4769 54.4239 40.4045Z" fill="white"/>
<path fill-rule="evenodd" clip-rule="evenodd" d="M63.8933 41.5197C62.5034 42.7638 60.6271 43.5445 58.5547 43.5899L58.7836 43.8477C59.1654 44.3145 59.5301 44.9696 59.8621 45.7489C60.1942 46.5276 60.4928 47.4318 60.6584 48.3046C60.8241 49.1768 60.8575 50.0189 60.8738 50.6573C60.8909 51.2964 60.8909 51.7332 60.8241 52.1539C60.758 52.5746 60.6257 52.9793 60.3264 53.3847C60.1039 53.6865 59.7896 53.989 59.4178 54.2515H62.8084C64.1357 54.2515 65.2306 54.2515 66.093 54.1426C66.9561 54.0338 67.5867 53.8154 68.1342 53.5035C68.6816 53.1923 69.1459 52.787 69.4445 52.3816C69.7438 51.9763 69.876 51.5716 69.9421 51.1508C70.009 50.7301 70.009 50.2934 69.9919 49.6543C69.9755 49.0159 69.9421 48.1737 69.7765 47.3016C69.6108 46.4288 69.3122 45.5245 68.9802 44.7459C68.6482 43.9665 68.2835 43.3114 67.9017 42.8446C67.5206 42.3765 67.1218 42.096 66.7904 41.909C66.4584 41.722 66.1932 41.6285 65.9608 41.5511C65.7283 41.4729 65.5292 41.4102 65.3138 41.3794C65.0976 41.3481 64.8659 41.3481 64.6263 41.3768C64.3867 41.4055 64.14 41.4623 63.8933 41.5197Z" fill="white"/>
<defs>
<filter id="filter0_d_3_3254" x="0" y="0.404724" width="106" height="106" filterUnits="userSpaceOnUse" color-interpolation-filters="sRGB">
<feFlood flood-opacity="0" result="BackgroundImageFix"/>
<feColorMatrix in="SourceAlpha" type="matrix" values="0 0 0 0 0 0 0 0 0 0 0 0 0 0 0 0 0 0 127 0" result="hardAlpha"/>
<feMorphology radius="2" operator="erode" in="SourceAlpha" result="effect1_dropShadow_3_3254"/>
<feOffset dy="10"/>
<feGaussianBlur stdDeviation="11"/>
<feColorMatrix type="matrix" values="0 0 0 0 0.427083 0 0 0 0 0.671455 0 0 0 0 1 0 0 0 0.36 0"/>
<feBlend mode="normal" in2="BackgroundImageFix" result="effect1_dropShadow_3_3254"/>
<feBlend mode="normal" in="SourceGraphic" in2="effect1_dropShadow_3_3254" result="shape"/>
</filter>
<linearGradient id="paint0_linear_3_3254" x1="33.5" y1="10.4047" x2="65" y2="76.4047" gradientUnits="userSpaceOnUse">
<stop stop-color="#5CA1FE"/>
<stop offset="1" stop-color="#217BF4"/>
</linearGradient>
</defs>
</svg>
