<svg width="106" height="106" viewBox="0 0 106 106" fill="none" xmlns="http://www.w3.org/2000/svg">
<g filter="url(#filter0_d_3_3295)">
<rect x="20" y="10" width="66" height="66" rx="24" fill="url(#paint0_linear_3_3295)"/>
</g>
<path d="M44.2891 33.3864L46.4393 35.4066C46.5736 34.6911 46.9768 34.0177 47.5592 33.5127C48.9926 32.25 51.322 32.208 52.7555 33.4706C52.8451 33.5548 52.9347 33.6389 53.0242 33.7231C53.6066 34.3544 53.965 35.1541 53.965 35.9959C53.965 36.1642 53.965 36.3326 53.9202 36.4588C53.8306 37.2585 53.4722 37.974 52.8451 38.5632C52.3075 39.0683 51.6356 39.405 50.874 39.5312L53.0242 41.5515L55.6224 39.1104C55.6672 39.0683 55.6672 39.0683 55.712 39.0683C55.712 39.0683 55.712 39.0683 55.7568 39.0683C55.8016 39.0683 55.8016 39.0683 55.8464 39.0683C55.8912 39.0683 55.936 39.0683 55.936 39.0683C56.0256 39.1104 56.1152 39.1945 56.1152 39.3208C56.1152 40.1205 56.4735 40.836 57.0559 41.3831C57.683 41.9723 58.4893 42.267 59.3404 42.267C59.3404 42.267 59.3404 42.267 59.3852 42.267C59.654 42.267 59.878 42.2249 60.1468 42.1828C60.7291 42.0565 61.2667 41.7619 61.6698 41.341C62.3866 40.5834 62.6553 39.5733 62.4314 38.6053C62.297 38.1003 62.0282 37.6373 61.6698 37.2585C61.4459 37.0481 61.1771 36.8376 60.9083 36.7114C60.6395 36.5851 60.3708 36.5009 60.102 36.4167C59.9676 36.3747 59.8332 36.3747 59.6988 36.3326C59.6092 36.3326 59.4748 36.3326 59.3852 36.3326C59.2509 36.3326 59.1613 36.2484 59.1165 36.1642C59.0717 36.08 59.1165 35.9538 59.1613 35.8696L61.7594 33.4285L54.5025 26.5682C53.6962 25.8106 52.3523 25.8106 51.546 26.5682L44.2891 33.3864Z" fill="white"/>
<path d="M69.4177 40.5834L62.1607 33.7652L60.0105 35.7854C60.7721 35.9117 61.4888 36.2905 62.0264 36.7955C63.3702 38.1423 63.415 40.3309 62.0711 41.6777C61.3544 42.3932 60.4137 42.8141 59.3834 42.8141C58.3531 42.8562 57.3676 42.4774 56.6509 41.7619C56.1133 41.2568 55.7549 40.6255 55.6206 39.91L53.4256 41.9723L56.0237 44.4134C56.1133 44.4976 56.1133 44.6239 56.0685 44.708C56.0237 44.7922 55.9341 44.8764 55.7997 44.8764C54.9486 44.8764 54.1871 45.2131 53.6047 45.7602C52.9776 46.3495 52.664 47.107 52.664 47.9488C52.664 48.7485 53.0224 49.5061 53.6943 50.0953C53.8735 50.2636 54.0975 50.432 54.3663 50.5162C55.531 51.1054 57.054 50.937 58.0843 50.0532C58.7115 49.5061 59.0698 48.7485 59.0698 47.9488C59.0698 47.8225 59.1594 47.7384 59.249 47.6963C59.3386 47.6542 59.473 47.6963 59.5626 47.7384L62.1607 50.1795L69.4177 43.3612C69.8208 42.9824 70.0448 42.4774 70.0448 41.9723C70.0448 41.4252 69.8208 40.9622 69.4177 40.5834Z" fill="white"/>
<path d="M59.6074 48.5381C59.473 49.2536 59.0698 49.927 58.4875 50.432C57.054 51.6947 54.7246 51.7367 53.2912 50.4741C52.5296 49.8007 52.0817 48.9169 52.0817 47.9488C52.0817 47.2333 52.3057 46.5179 52.7088 45.9286C52.8432 45.7182 53.0224 45.5498 53.2016 45.3815C53.7391 44.8764 54.4111 44.5397 55.1726 44.4135L53.0224 42.3512L50.4242 44.7923C50.3347 44.9185 50.2003 44.9185 50.1107 44.8764C50.0211 44.8343 49.9315 44.7502 49.9315 44.6239C49.9315 43.8242 49.5731 43.1087 48.9908 42.5616C48.3636 41.9724 47.5573 41.6777 46.6614 41.6777C46.5718 41.6777 46.4374 41.6777 46.3478 41.6777C45.5863 41.7619 44.9144 42.0986 44.3768 42.6037C43.5257 43.4454 43.3465 44.7081 43.7497 45.7603C43.7497 45.8024 43.7945 45.8444 43.7945 45.8865C43.7945 45.9286 43.8393 45.9707 43.8393 46.0128C43.9737 46.2653 44.1528 46.5179 44.3768 46.7283C44.9592 47.3175 45.7655 47.6542 46.6166 47.6542C46.751 47.6542 46.8406 47.7384 46.8854 47.8226C46.9302 47.9068 46.8854 48.033 46.8406 48.1172L44.2424 50.5583L51.4993 57.3765C52.3057 58.1341 53.6495 58.1341 54.4559 57.3765L61.7128 50.5583L59.6074 48.5381Z" fill="white"/>
<path d="M36.6271 43.3612L43.8841 50.1794L46.0343 48.1592C45.2727 48.033 44.556 47.6542 44.0184 47.107C42.6746 45.7602 42.6298 43.5717 43.9736 42.2248C44.6904 41.5093 45.6311 41.0885 46.6614 41.0885C47.6917 41.0885 48.6772 41.4252 49.3939 42.1407C49.9315 42.6457 50.2899 43.277 50.4242 43.9925L52.5744 41.9723L49.9763 39.5312C49.8867 39.447 49.8867 39.3208 49.9315 39.2366C49.9763 39.1524 50.0659 39.0683 50.2003 39.0683C51.0514 39.0683 51.8129 38.7315 52.3953 38.1844C52.4848 38.1002 52.5296 38.0161 52.6192 37.974C53.112 37.4268 53.336 36.7534 53.336 36.0379C53.336 35.2383 52.9776 34.4807 52.3057 33.8914C51.0962 32.8393 49.1252 32.8393 47.9605 33.9335C47.3333 34.4807 46.975 35.2383 46.975 36.0379C46.975 36.1642 46.8854 36.2484 46.7958 36.2905C46.7062 36.3325 46.5718 36.2905 46.4822 36.2484L43.8841 33.8073L36.6271 40.5834C36.224 40.9622 36 41.4252 36 41.9723C36 42.5195 36.224 42.9824 36.6271 43.3612Z" fill="white"/>
<defs>
<filter id="filter0_d_3_3295" x="0" y="0" width="106" height="106" filterUnits="userSpaceOnUse" color-interpolation-filters="sRGB">
<feFlood flood-opacity="0" result="BackgroundImageFix"/>
<feColorMatrix in="SourceAlpha" type="matrix" values="0 0 0 0 0 0 0 0 0 0 0 0 0 0 0 0 0 0 127 0" result="hardAlpha"/>
<feMorphology radius="2" operator="erode" in="SourceAlpha" result="effect1_dropShadow_3_3295"/>
<feOffset dy="10"/>
<feGaussianBlur stdDeviation="11"/>
<feColorMatrix type="matrix" values="0 0 0 0 0.427083 0 0 0 0 0.671455 0 0 0 0 1 0 0 0 0.36 0"/>
<feBlend mode="normal" in2="BackgroundImageFix" result="effect1_dropShadow_3_3295"/>
<feBlend mode="normal" in="SourceGraphic" in2="effect1_dropShadow_3_3295" result="shape"/>
</filter>
<linearGradient id="paint0_linear_3_3295" x1="33.5" y1="10" x2="65" y2="76" gradientUnits="userSpaceOnUse">
<stop stop-color="#5CA1FE"/>
<stop offset="1" stop-color="#217BF4"/>
</linearGradient>
</defs>
</svg>
