<svg width="106" height="106" viewBox="0 0 106 106" fill="none" xmlns="http://www.w3.org/2000/svg">
<g filter="url(#filter0_d_3_3281)">
<rect x="20" y="12" width="66" height="66" rx="24" fill="url(#paint0_linear_3_3281)"/>
</g>
<path fill-rule="evenodd" clip-rule="evenodd" d="M53.1935 45.1C55.837 45.1 57.9801 43.0865 57.9801 40.6028C57.9801 38.1191 55.837 36.1056 53.1935 36.1056C50.55 36.1056 48.4069 38.1191 48.4069 40.6028C48.4069 43.0865 50.55 45.1 53.1935 45.1Z" fill="white"/>
<path fill-rule="evenodd" clip-rule="evenodd" d="M57.3476 44.5967C56.2715 45.5608 54.8064 46.154 53.1924 46.154C51.5784 46.154 50.1134 45.5608 49.0372 44.5967C48.8519 44.5535 48.6665 44.5109 48.4866 44.4893C48.3066 44.4677 48.1325 44.4677 47.9701 44.4913C47.8083 44.5144 47.6587 44.5616 47.4841 44.6203C47.3094 44.6785 47.1102 44.7488 46.8608 44.8893C46.6119 45.0298 46.3123 45.2406 46.026 45.5924C45.7392 45.9432 45.4652 46.4355 45.2158 47.0212C44.9664 47.6064 44.7421 48.2859 44.6176 48.9419C44.4932 49.5973 44.4681 50.2302 44.4558 50.7099C44.443 51.1902 44.443 51.5184 44.4932 51.8346C44.5428 52.1508 44.6422 52.4549 44.867 52.7596C45.0914 53.0642 45.4401 53.3688 45.8514 53.6027C46.2626 53.8371 46.7363 54.0012 47.3847 54.083C48.0326 54.1648 48.8551 54.1648 49.8522 54.1648H52.7438H53.1924H53.6411H56.5326C57.5298 54.1648 58.3523 54.1648 59.0001 54.083C59.6485 54.0012 60.1222 53.8371 60.5335 53.6027C60.9447 53.3688 61.2935 53.0642 61.5178 52.7596C61.7427 52.4549 61.842 52.1508 61.8917 51.8346C61.9419 51.5184 61.9419 51.1902 61.9291 50.7099C61.9168 50.2302 61.8917 49.5973 61.7672 48.9419C61.6428 48.2859 61.4185 47.6064 61.1691 47.0212C60.9196 46.4355 60.6456 45.9432 60.3588 45.5924C60.0726 45.2406 59.7729 45.0298 59.5241 44.8893C59.2746 44.7488 59.0754 44.6785 58.9008 44.6203C58.7261 44.5616 58.5766 44.5144 58.4148 44.4913C58.2524 44.4677 58.0783 44.4677 57.8983 44.4893C57.7183 44.5109 57.533 44.5535 57.3476 44.5967Z" fill="white"/>
<path fill-rule="evenodd" clip-rule="evenodd" d="M58.293 42.8191C59.1437 43.5488 60.2763 43.9945 61.519 43.9945C64.1619 43.9945 66.3044 41.981 66.3044 39.4972C66.3044 37.0135 64.1619 35 61.519 35C59.8219 35 58.3304 35.8306 57.4813 37.0827C58.4393 37.9048 59.0406 39.0892 59.0406 40.4046C59.0406 41.2929 58.7661 42.122 58.293 42.8191Z" fill="white"/>
<path fill-rule="evenodd" clip-rule="evenodd" d="M47.707 42.8191C46.8563 43.5488 45.7237 43.9945 44.481 43.9945C41.8381 43.9945 39.6956 41.981 39.6956 39.4972C39.6956 37.0135 41.8381 35 44.481 35C46.1781 35 47.6696 35.8306 48.5187 37.0827C47.5607 37.9048 46.9594 39.0892 46.9594 40.4046C46.9594 41.2929 47.2339 42.122 47.707 42.8191Z" fill="white"/>
<path fill-rule="evenodd" clip-rule="evenodd" d="M65.4097 43.6572C64.3651 44.5922 62.9551 45.1789 61.3976 45.213L61.5697 45.4067C61.8566 45.7575 62.1307 46.2499 62.3802 46.8355C62.6297 47.4207 62.8541 48.1002 62.9786 48.7562C63.1031 49.4116 63.1282 50.0445 63.1405 50.5243C63.1533 51.0045 63.1533 51.3328 63.1031 51.6489C63.0534 51.9651 62.954 52.2693 62.7291 52.5739C62.5619 52.8007 62.3257 53.0281 62.0463 53.2253H64.5943C65.5919 53.2253 66.4147 53.2253 67.0628 53.1435C67.7114 53.0617 68.1853 52.8976 68.5967 52.6632C69.0081 52.4293 69.357 52.1247 69.5814 51.8201C69.8064 51.5155 69.9058 51.2113 69.9554 50.8951C70.0057 50.579 70.0057 50.2507 69.9928 49.7705C69.9806 49.2907 69.9554 48.6578 69.8309 48.0024C69.7065 47.3464 69.4821 46.6669 69.2325 46.0817C68.983 45.4961 68.7089 45.0037 68.422 44.6529C68.1356 44.3011 67.8359 44.0903 67.5869 43.9498C67.3374 43.8093 67.1381 43.739 66.9634 43.6808C66.7887 43.6221 66.6391 43.5749 66.4772 43.5518C66.3148 43.5282 66.1406 43.5282 65.9605 43.5498C65.7805 43.5714 65.5951 43.6141 65.4097 43.6572Z" fill="white"/>
<path fill-rule="evenodd" clip-rule="evenodd" d="M40.5903 43.6572C41.6349 44.5922 43.0449 45.1789 44.6024 45.213L44.4303 45.4067C44.1434 45.7575 43.8693 46.2499 43.6198 46.8355C43.3703 47.4207 43.1459 48.1002 43.0214 48.7562C42.8969 49.4116 42.8718 50.0445 42.8595 50.5243C42.8467 51.0045 42.8467 51.3328 42.8969 51.6489C42.9466 51.9651 43.046 52.2693 43.2709 52.5739C43.4381 52.8007 43.6743 53.0281 43.9537 53.2253H41.4057C40.4081 53.2253 39.5853 53.2253 38.9372 53.1435C38.2886 53.0617 37.8147 52.8976 37.4033 52.6632C36.9919 52.4293 36.643 52.1247 36.4186 51.8201C36.1936 51.5155 36.0942 51.2113 36.0446 50.8951C35.9943 50.579 35.9943 50.2507 36.0072 49.7705C36.0194 49.2907 36.0446 48.6578 36.1691 48.0024C36.2935 47.3464 36.5179 46.6669 36.7675 46.0817C37.017 45.4961 37.2911 45.0037 37.578 44.6529C37.8644 44.3011 38.1641 44.0903 38.4131 43.9498C38.6626 43.8093 38.8619 43.739 39.0366 43.6808C39.2113 43.6221 39.3609 43.5749 39.5228 43.5518C39.6852 43.5282 39.8594 43.5282 40.0395 43.5498C40.2195 43.5714 40.4049 43.6141 40.5903 43.6572Z" fill="white"/>
<defs>
<filter id="filter0_d_3_3281" x="0" y="0" width="106" height="106" filterUnits="userSpaceOnUse" color-interpolation-filters="sRGB">
<feFlood flood-opacity="0" result="BackgroundImageFix"/>
<feColorMatrix in="SourceAlpha" type="matrix" values="0 0 0 0 0 0 0 0 0 0 0 0 0 0 0 0 0 0 127 0" result="hardAlpha"/>
<feMorphology radius="2" operator="erode" in="SourceAlpha" result="effect1_dropShadow_3_3281"/>
<feOffset dy="8"/>
<feGaussianBlur stdDeviation="11"/>
<feColorMatrix type="matrix" values="0 0 0 0 0.971137 0 0 0 0 0.341921 0 0 0 0 0.36709 0 0 0 0.3 0"/>
<feBlend mode="normal" in2="BackgroundImageFix" result="effect1_dropShadow_3_3281"/>
<feBlend mode="normal" in="SourceGraphic" in2="effect1_dropShadow_3_3281" result="shape"/>
</filter>
<linearGradient id="paint0_linear_3_3281" x1="33.5" y1="12" x2="65" y2="78" gradientUnits="userSpaceOnUse">
<stop stop-color="#FF858A"/>
<stop offset="1" stop-color="#F04148"/>
</linearGradient>
</defs>
</svg>
